<svg id="GreenCompanion" xmlns="http://www.w3.org/2000/svg" xmlns:xlink="http://www.w3.org/1999/xlink" viewBox="0 0 287.25 381.01"><defs><style>.cls-1{fill:url(#linear-gradient);}.cls-2{fill:url(#linear-gradient-2);}.cls-3{fill:url(#linear-gradient-3);}.cls-4{fill:url(#linear-gradient-4);}.cls-5{fill:url(#linear-gradient-5);}.cls-6{fill:url(#linear-gradient-6);}</style><linearGradient id="linear-gradient" x1="-544.38" y1="486.11" x2="-558.92" y2="394.29" gradientTransform="matrix(0.82, 0.58, 0.58, -0.82, 476.13, 1031.63)" gradientUnits="userSpaceOnUse"><stop offset="0" stop-color="#30a96c"/><stop offset="1" stop-color="#004e22"/></linearGradient><linearGradient id="linear-gradient-2" x1="359.03" y1="434.2" x2="333.13" y2="269.78" gradientTransform="matrix(0.82, 0.58, 0.58, -0.82, -172.98, 540.32)" gradientUnits="userSpaceOnUse"><stop offset="0" stop-color="#3e9ea3"/><stop offset="1" stop-color="#005945"/></linearGradient><linearGradient id="linear-gradient-3" x1="363.02" y1="413.88" x2="343.07" y2="287.92" gradientTransform="matrix(0.82, 0.58, 0.58, -0.82, -172.98, 540.32)" gradientUnits="userSpaceOnUse"><stop offset="0" stop-color="#00503d"/><stop offset="1" stop-color="#00ab62"/></linearGradient><linearGradient id="linear-gradient-4" x1="359.36" y1="394.93" x2="344.79" y2="302.92" gradientTransform="matrix(0.82, 0.58, 0.58, -0.82, -172.98, 540.32)" gradientUnits="userSpaceOnUse"><stop offset="0" stop-color="#73a75c"/><stop offset="1" stop-color="#008a81"/></linearGradient><linearGradient id="linear-gradient-5" x1="-537.42" y1="516.86" x2="-534.78" y2="365.61" gradientTransform="matrix(0.82, 0.58, 0.58, -0.82, 476.13, 1031.63)" gradientUnits="userSpaceOnUse"><stop offset="0" stop-color="#00aa65"/><stop offset="0.05" stop-color="#039f61"/><stop offset="0.26" stop-color="#0e7551"/><stop offset="0.46" stop-color="#175544"/><stop offset="0.66" stop-color="#1d3e3b"/><stop offset="0.84" stop-color="#213036"/><stop offset="1" stop-color="#222b34"/></linearGradient><linearGradient id="linear-gradient-6" x1="-527.66" y1="518.64" x2="-553.69" y2="354.24" gradientTransform="matrix(0.82, 0.58, 0.58, -0.82, 476.13, 1031.63)" gradientUnits="userSpaceOnUse"><stop offset="0" stop-color="#003f26"/><stop offset="1" stop-color="#009479"/></linearGradient></defs><title>GreenCompanion</title><path id="Polygon_2_copy-10" data-name="Polygon 2 copy-10" class="cls-1" d="M319.46,355.65l-56-87,103.77,97.37L282,418Z" transform="translate(-156.2 -217.73)"/><path id="TopRight1" class="cls-2" d="M221.19,439.12,350,598.74,156.2,430.8l148.56-96.89Z" transform="translate(-156.2 -217.73)"/><path id="TopRight2" class="cls-3" d="M257.44,453.83,343.52,572.9,197.72,440.72l113.5-74.51Z" transform="translate(-156.2 -217.73)"/><path id="TopRight3" class="cls-4" d="M279.85,460.79,329.18,541l-97.1-90.7,85.6-51.8Z" transform="translate(-156.2 -217.73)"/><path id="Polygon_2_copy-11" data-name="Polygon 2 copy-11" class="cls-5" d="M341.81,362.56l-85.68-119,145.37,132L288.43,450.26Z" transform="translate(-156.2 -217.73)"/><path id="Polygon_2_copy-12" data-name="Polygon 2 copy-12" class="cls-6" d="M371.39,370.61,249.67,217.73,443.45,385.67,294.89,482.56Z" transform="translate(-156.2 -217.73)"/></svg>