<svg id="OrangeCompanion" xmlns="http://www.w3.org/2000/svg" xmlns:xlink="http://www.w3.org/1999/xlink" viewBox="0 0 326.03 268.09"><defs><style>.cls-1{fill:url(#linear-gradient);}.cls-2{fill:url(#linear-gradient-2);}.cls-3{fill:url(#linear-gradient-3);}.cls-4{fill:url(#linear-gradient-4);}.cls-5{fill:url(#linear-gradient-5);}.cls-6{fill:url(#linear-gradient-6);}</style><linearGradient id="linear-gradient" x1="-493.51" y1="448.57" x2="-508.06" y2="356.76" gradientTransform="matrix(0.82, 0.58, 0.58, -0.82, 475.54, 1031.37)" gradientUnits="userSpaceOnUse"><stop offset="0.22" stop-color="#d36027"/><stop offset="1" stop-color="#a93223"/></linearGradient><linearGradient id="linear-gradient-2" x1="-486.56" y1="479.32" x2="-483.92" y2="328.07" gradientTransform="matrix(0.82, 0.58, 0.58, -0.82, 475.54, 1031.37)" gradientUnits="userSpaceOnUse"><stop offset="0" stop-color="#9c2320"/><stop offset="0.01" stop-color="#9c2320"/><stop offset="1" stop-color="#f68a21"/></linearGradient><linearGradient id="linear-gradient-3" x1="-476.79" y1="481.1" x2="-502.83" y2="316.71" gradientTransform="matrix(0.82, 0.58, 0.58, -0.82, 475.54, 1031.37)" gradientUnits="userSpaceOnUse"><stop offset="0" stop-color="#9d2726"/><stop offset="1" stop-color="#e65125"/></linearGradient><linearGradient id="linear-gradient-4" x1="309.51" y1="432.41" x2="294.94" y2="340.39" gradientTransform="matrix(0.82, 0.58, 0.58, -0.82, -173.22, 539.61)" gradientUnits="userSpaceOnUse"><stop offset="0" stop-color="#aa2421"/><stop offset="0.98" stop-color="#f04e23"/></linearGradient><linearGradient id="linear-gradient-5" x1="313.16" y1="451.35" x2="293.21" y2="325.39" gradientTransform="matrix(0.82, 0.58, 0.58, -0.82, -173.22, 539.61)" gradientUnits="userSpaceOnUse"><stop offset="0" stop-color="#b72825"/><stop offset="0.99" stop-color="#f6871f"/></linearGradient><linearGradient id="linear-gradient-6" x1="309.18" y1="471.68" x2="283.27" y2="307.25" gradientTransform="matrix(0.82, 0.58, 0.58, -0.82, -173.22, 539.61)" gradientUnits="userSpaceOnUse"><stop offset="0.11" stop-color="#a13b44"/><stop offset="1" stop-color="#e75625"/></linearGradient></defs><title>OrangeWebCompanion</title><path id="Polygon_2_copy-10" data-name="Polygon 2 copy-10" class="cls-1" d="M339.16,415.31l-56-87,103.7,97.44L301.63,477.6Z" transform="translate(-137.09 -274.11)"/><path id="Polygon_2_copy-11" data-name="Polygon 2 copy-11" class="cls-2" d="M361.51,422.24l-85.6-119.06L421.18,435.29,308.06,509.9Z" transform="translate(-137.09 -274.11)"/><path id="Polygon_2_copy-12" data-name="Polygon 2 copy-12" class="cls-3" d="M391.07,430.31l-121.6-153L463.13,445.41,314.5,542.2Z" transform="translate(-137.09 -274.11)"/><path id="TopRight3" class="cls-4" d="M260.73,401,310,481.21l-97-90.76,85.64-51.74Z" transform="translate(-137.09 -274.11)"/><path id="TopRight2" class="cls-5" d="M238.32,394l86,119.13L178.61,380.85l113.55-74.44Z" transform="translate(-137.09 -274.11)"/><path id="TopRight1" class="cls-6" d="M202.08,379.26,330.76,539,137.09,370.89l148.63-96.78Z" transform="translate(-137.09 -274.11)"/></svg>