<svg id="PurpleCompanion" xmlns="http://www.w3.org/2000/svg" xmlns:xlink="http://www.w3.org/1999/xlink" viewBox="0 0 376.35 367.86"><defs><style>.cls-1{fill:url(#linear-gradient);}.cls-2{fill:url(#linear-gradient-2);}.cls-3{fill:url(#linear-gradient-3);}.cls-4{fill:url(#linear-gradient-4);}.cls-5{fill:url(#linear-gradient-5);}.cls-6{fill:url(#linear-gradient-6);}</style><linearGradient id="linear-gradient" x1="468.05" y1="519.45" x2="442.15" y2="355.03" gradientTransform="matrix(0.82, 0.58, 0.58, -0.82, -172.98, 540.32)" gradientUnits="userSpaceOnUse"><stop offset="0" stop-color="#7e2a8e"/><stop offset="1" stop-color="#2c1238"/></linearGradient><linearGradient id="linear-gradient-2" x1="419.48" y1="501.45" x2="399.53" y2="375.49" gradientTransform="matrix(0.82, 0.58, 0.58, -0.82, -172.98, 540.32)" gradientUnits="userSpaceOnUse"><stop offset="0" stop-color="#5a2d8b"/><stop offset="0.99" stop-color="#25102f"/><stop offset="1" stop-color="#25102f"/></linearGradient><linearGradient id="linear-gradient-3" x1="-553.48" y1="392.36" x2="-568.02" y2="300.55" gradientTransform="matrix(0.82, 0.58, 0.58, -0.82, 476.13, 1031.63)" gradientUnits="userSpaceOnUse"><stop offset="0" stop-color="#652a7b"/><stop offset="1" stop-color="#1a0022"/></linearGradient><linearGradient id="linear-gradient-4" x1="-593.17" y1="429.69" x2="-590.52" y2="278.43" gradientTransform="matrix(0.82, 0.58, 0.58, -0.82, 476.13, 1031.63)" gradientUnits="userSpaceOnUse"><stop offset="0" stop-color="#8a4c9e"/><stop offset="0.41" stop-color="#29122b"/><stop offset="1" stop-color="#29122b"/></linearGradient><linearGradient id="linear-gradient-5" x1="369.12" y1="488.97" x2="354.55" y2="396.96" gradientTransform="matrix(0.82, 0.58, 0.58, -0.82, -172.98, 540.32)" gradientUnits="userSpaceOnUse"><stop offset="0" stop-color="#724d9f"/><stop offset="1" stop-color="#611246"/><stop offset="1" stop-color="#611246"/></linearGradient><linearGradient id="linear-gradient-6" x1="-636.3" y1="433.61" x2="-662.34" y2="269.21" gradientTransform="matrix(0.82, 0.58, 0.58, -0.82, 476.13, 1031.63)" gradientUnits="userSpaceOnUse"><stop offset="0" stop-color="#470d46"/><stop offset="0.42" stop-color="#642a78"/><stop offset="1" stop-color="#642a78"/></linearGradient></defs><title>PurpleComapnion</title><path id="TopRight1" class="cls-1" d="M359.43,432.66,488.22,592.28,294.44,424.33,443,327.45Z" transform="translate(-111.87 -224.42)"/><path id="TopRight2" class="cls-2" d="M354.16,415.07l86.08,119.07L294.44,402l113.5-74.51Z" transform="translate(-111.87 -224.42)"/><path id="Polygon_2_copy-10" data-name="Polygon 2 copy-10" class="cls-3" d="M257.9,426.93l-56-87,103.77,97.37-85.24,51.91Z" transform="translate(-111.87 -224.42)"/><path id="Polygon_2_copy-11" data-name="Polygon 2 copy-11" class="cls-4" d="M246,401.55l-85.68-119,145.37,132L192.58,489.25Z" transform="translate(-111.87 -224.42)"/><path id="TopRight3" class="cls-5" d="M342.21,389.73l49.34,80.21-97.11-90.69,85.6-51.8Z" transform="translate(-111.87 -224.42)"/><path id="Polygon_2_copy-12" data-name="Polygon 2 copy-12" class="cls-6" d="M233.58,377.3,111.87,224.42,305.65,392.36,157.09,489.25Z" transform="translate(-111.87 -224.42)"/></svg>